<mxfile host="app.diagrams.net" modified="2024-02-20T15:50:51.432Z" agent="Mozilla/5.0 (Macintosh; Intel Mac OS X 10_15_7) AppleWebKit/537.36 (KHTML, like Gecko) Chrome/121.0.0.0 Safari/537.36" etag="VRyhCcaKBx2QJxby7nCE" version="23.0.2" type="github">
  <diagram name="第 1 页" id="aGGtP6KPG0DedGO1pz7s">
    <mxGraphModel dx="1242" dy="820" grid="1" gridSize="10" guides="1" tooltips="1" connect="1" arrows="1" fold="1" page="1" pageScale="1" pageWidth="1200" pageHeight="500" math="0" shadow="0">
      <root>
        <mxCell id="0" />
        <mxCell id="1" parent="0" />
        <mxCell id="pFQzVFKFw2HDIEn4oTUE-1" value="" style="rounded=1;whiteSpace=wrap;html=1;fillColor=#d5e8d4;strokeColor=#82b366;" vertex="1" parent="1">
          <mxGeometry x="40" y="150" width="120" height="260" as="geometry" />
        </mxCell>
        <mxCell id="pFQzVFKFw2HDIEn4oTUE-3" value="用户画像" style="rounded=0;whiteSpace=wrap;html=1;" vertex="1" parent="1">
          <mxGeometry x="50" y="275" width="100" height="40" as="geometry" />
        </mxCell>
        <mxCell id="pFQzVFKFw2HDIEn4oTUE-4" value="场" style="rounded=0;whiteSpace=wrap;html=1;" vertex="1" parent="1">
          <mxGeometry x="50" y="165" width="100" height="40" as="geometry" />
        </mxCell>
        <mxCell id="pFQzVFKFw2HDIEn4oTUE-5" value="场内动作" style="rounded=0;whiteSpace=wrap;html=1;" vertex="1" parent="1">
          <mxGeometry x="50" y="220" width="100" height="40" as="geometry" />
        </mxCell>
        <mxCell id="pFQzVFKFw2HDIEn4oTUE-7" value="" style="endArrow=none;dashed=1;html=1;dashPattern=1 3;strokeWidth=4;rounded=0;" edge="1" parent="1">
          <mxGeometry width="50" height="50" relative="1" as="geometry">
            <mxPoint x="80" y="390" as="sourcePoint" />
            <mxPoint x="120" y="390.5" as="targetPoint" />
          </mxGeometry>
        </mxCell>
        <mxCell id="pFQzVFKFw2HDIEn4oTUE-17" value="" style="edgeStyle=orthogonalEdgeStyle;rounded=0;orthogonalLoop=1;jettySize=auto;html=1;" edge="1" parent="1" source="pFQzVFKFw2HDIEn4oTUE-12" target="pFQzVFKFw2HDIEn4oTUE-14">
          <mxGeometry relative="1" as="geometry" />
        </mxCell>
        <mxCell id="pFQzVFKFw2HDIEn4oTUE-25" value="" style="edgeStyle=orthogonalEdgeStyle;rounded=0;orthogonalLoop=1;jettySize=auto;html=1;" edge="1" parent="1" source="pFQzVFKFw2HDIEn4oTUE-12" target="pFQzVFKFw2HDIEn4oTUE-24">
          <mxGeometry relative="1" as="geometry" />
        </mxCell>
        <mxCell id="pFQzVFKFw2HDIEn4oTUE-12" value="对话Round1" style="shape=callout;whiteSpace=wrap;html=1;perimeter=calloutPerimeter;fillColor=#dae8fc;strokeColor=none;" vertex="1" parent="1">
          <mxGeometry x="240" y="150" width="110" height="60" as="geometry" />
        </mxCell>
        <mxCell id="pFQzVFKFw2HDIEn4oTUE-18" value="" style="edgeStyle=orthogonalEdgeStyle;rounded=0;orthogonalLoop=1;jettySize=auto;html=1;" edge="1" parent="1" source="pFQzVFKFw2HDIEn4oTUE-14" target="pFQzVFKFw2HDIEn4oTUE-15">
          <mxGeometry relative="1" as="geometry" />
        </mxCell>
        <mxCell id="pFQzVFKFw2HDIEn4oTUE-36" value="" style="edgeStyle=orthogonalEdgeStyle;rounded=0;orthogonalLoop=1;jettySize=auto;html=1;" edge="1" parent="1" source="pFQzVFKFw2HDIEn4oTUE-14" target="pFQzVFKFw2HDIEn4oTUE-34">
          <mxGeometry relative="1" as="geometry" />
        </mxCell>
        <mxCell id="pFQzVFKFw2HDIEn4oTUE-14" value="对话Round1~2" style="shape=callout;whiteSpace=wrap;html=1;perimeter=calloutPerimeter;fillColor=#dae8fc;strokeColor=none;" vertex="1" parent="1">
          <mxGeometry x="240" y="260" width="110" height="60" as="geometry" />
        </mxCell>
        <mxCell id="pFQzVFKFw2HDIEn4oTUE-40" value="" style="edgeStyle=orthogonalEdgeStyle;rounded=0;orthogonalLoop=1;jettySize=auto;html=1;" edge="1" parent="1" source="pFQzVFKFw2HDIEn4oTUE-15" target="pFQzVFKFw2HDIEn4oTUE-39">
          <mxGeometry relative="1" as="geometry" />
        </mxCell>
        <mxCell id="pFQzVFKFw2HDIEn4oTUE-15" value="对话Round1~3" style="shape=callout;whiteSpace=wrap;html=1;perimeter=calloutPerimeter;fillColor=#dae8fc;strokeColor=none;base=15;" vertex="1" parent="1">
          <mxGeometry x="240" y="360" width="110" height="60" as="geometry" />
        </mxCell>
        <mxCell id="pFQzVFKFw2HDIEn4oTUE-21" value="" style="endArrow=classic;html=1;rounded=0;entryX=0;entryY=0;entryDx=0;entryDy=15;entryPerimeter=0;exitX=1;exitY=0.5;exitDx=0;exitDy=0;" edge="1" parent="1" source="pFQzVFKFw2HDIEn4oTUE-1" target="pFQzVFKFw2HDIEn4oTUE-12">
          <mxGeometry width="50" height="50" relative="1" as="geometry">
            <mxPoint x="160" y="260" as="sourcePoint" />
            <mxPoint x="210" y="210" as="targetPoint" />
          </mxGeometry>
        </mxCell>
        <mxCell id="pFQzVFKFw2HDIEn4oTUE-22" value="" style="endArrow=classic;html=1;rounded=0;entryX=0;entryY=0;entryDx=0;entryDy=15;entryPerimeter=0;exitX=1;exitY=0.5;exitDx=0;exitDy=0;" edge="1" parent="1" source="pFQzVFKFw2HDIEn4oTUE-1" target="pFQzVFKFw2HDIEn4oTUE-14">
          <mxGeometry width="50" height="50" relative="1" as="geometry">
            <mxPoint x="160" y="260" as="sourcePoint" />
            <mxPoint x="250" y="175" as="targetPoint" />
          </mxGeometry>
        </mxCell>
        <mxCell id="pFQzVFKFw2HDIEn4oTUE-23" value="" style="endArrow=classic;html=1;rounded=0;entryX=0;entryY=0;entryDx=0;entryDy=15;entryPerimeter=0;exitX=1;exitY=0.5;exitDx=0;exitDy=0;" edge="1" parent="1" source="pFQzVFKFw2HDIEn4oTUE-1" target="pFQzVFKFw2HDIEn4oTUE-15">
          <mxGeometry width="50" height="50" relative="1" as="geometry">
            <mxPoint x="170" y="270" as="sourcePoint" />
            <mxPoint x="250" y="260" as="targetPoint" />
          </mxGeometry>
        </mxCell>
        <mxCell id="pFQzVFKFw2HDIEn4oTUE-28" value="" style="edgeStyle=orthogonalEdgeStyle;rounded=0;orthogonalLoop=1;jettySize=auto;html=1;" edge="1" parent="1" source="pFQzVFKFw2HDIEn4oTUE-24" target="pFQzVFKFw2HDIEn4oTUE-26">
          <mxGeometry relative="1" as="geometry" />
        </mxCell>
        <mxCell id="pFQzVFKFw2HDIEn4oTUE-24" value="" style="shape=image;verticalLabelPosition=bottom;labelBackgroundColor=default;verticalAlign=top;aspect=fixed;imageAspect=0;image=https://upload.wikimedia.org/wikipedia/commons/thumb/0/04/ChatGPT_logo.svg/800px-ChatGPT_logo.svg.png;" vertex="1" parent="1">
          <mxGeometry x="400" y="155" width="50" height="50" as="geometry" />
        </mxCell>
        <mxCell id="pFQzVFKFw2HDIEn4oTUE-26" value="第一轮对话状态" style="rounded=0;whiteSpace=wrap;html=1;" vertex="1" parent="1">
          <mxGeometry x="530" y="160" width="110" height="40" as="geometry" />
        </mxCell>
        <mxCell id="pFQzVFKFw2HDIEn4oTUE-27" value="预定义状态" style="rounded=0;whiteSpace=wrap;html=1;" vertex="1" parent="1">
          <mxGeometry x="50" y="330" width="100" height="40" as="geometry" />
        </mxCell>
        <mxCell id="pFQzVFKFw2HDIEn4oTUE-38" value="" style="edgeStyle=orthogonalEdgeStyle;rounded=0;orthogonalLoop=1;jettySize=auto;html=1;" edge="1" parent="1" source="pFQzVFKFw2HDIEn4oTUE-34" target="pFQzVFKFw2HDIEn4oTUE-37">
          <mxGeometry relative="1" as="geometry" />
        </mxCell>
        <mxCell id="pFQzVFKFw2HDIEn4oTUE-34" value="" style="shape=image;verticalLabelPosition=bottom;labelBackgroundColor=default;verticalAlign=top;aspect=fixed;imageAspect=0;image=https://upload.wikimedia.org/wikipedia/commons/thumb/0/04/ChatGPT_logo.svg/800px-ChatGPT_logo.svg.png;" vertex="1" parent="1">
          <mxGeometry x="400" y="265" width="50" height="50" as="geometry" />
        </mxCell>
        <mxCell id="pFQzVFKFw2HDIEn4oTUE-37" value="第二轮对话状态" style="rounded=0;whiteSpace=wrap;html=1;" vertex="1" parent="1">
          <mxGeometry x="530" y="270" width="110" height="40" as="geometry" />
        </mxCell>
        <mxCell id="pFQzVFKFw2HDIEn4oTUE-42" value="" style="edgeStyle=orthogonalEdgeStyle;rounded=0;orthogonalLoop=1;jettySize=auto;html=1;" edge="1" parent="1" source="pFQzVFKFw2HDIEn4oTUE-39" target="pFQzVFKFw2HDIEn4oTUE-41">
          <mxGeometry relative="1" as="geometry" />
        </mxCell>
        <mxCell id="pFQzVFKFw2HDIEn4oTUE-39" value="" style="shape=image;verticalLabelPosition=bottom;labelBackgroundColor=default;verticalAlign=top;aspect=fixed;imageAspect=0;image=https://upload.wikimedia.org/wikipedia/commons/thumb/0/04/ChatGPT_logo.svg/800px-ChatGPT_logo.svg.png;" vertex="1" parent="1">
          <mxGeometry x="400" y="365" width="50" height="50" as="geometry" />
        </mxCell>
        <mxCell id="pFQzVFKFw2HDIEn4oTUE-41" value="第三轮对话状态" style="rounded=0;whiteSpace=wrap;html=1;" vertex="1" parent="1">
          <mxGeometry x="530" y="370" width="110" height="40" as="geometry" />
        </mxCell>
        <mxCell id="pFQzVFKFw2HDIEn4oTUE-43" value="prompt里面告诉GPT从预定义状态里面识别或者参考泛化" style="text;html=1;strokeColor=none;fillColor=none;align=center;verticalAlign=middle;whiteSpace=wrap;rounded=0;" vertex="1" parent="1">
          <mxGeometry x="350" y="110" width="200" height="30" as="geometry" />
        </mxCell>
      </root>
    </mxGraphModel>
  </diagram>
</mxfile>
